<svg xmlns="http://www.w3.org/2000/svg" width="88.041" height="54.484" viewBox="0 0 88.041 54.484">
  <g id="Logo" transform="translate(0 0)">
    <path id="Path_547" data-name="Path 547" d="M115.915,269.282l-.472,3.212h8.066l-.817-5.561c-1.511.474-3.008.983-4.5,1.507Q117.05,268.849,115.915,269.282Z" transform="translate(-105.246 -235.513)" fill="none"/>
    <path id="Path_548" data-name="Path 548" d="M220.538,200.772c0-3.8-1.294-5.479-4.261-5.479h-4.033v12.821q2.694-.289,5.393-.475,1.406-.094,2.814-.157a11.355,11.355,0,0,0,.087-1.46Z" transform="translate(-170.697 -187.075)" fill="none"/>
    <path id="Path_549" data-name="Path 549" d="M122.083,200.932l-2.672,18.19c1.719-.7,3.463-1.324,5.214-1.92l-2.39-16.27Z" transform="translate(-107.929 -190.887)" fill="none"/>
    <path id="Path_550" data-name="Path 550" d="M102.487,261.911c-.362.108-.722.221-1.082.334l.817,5.561H94.156l.472-3.212a84.49,84.49,0,0,0-8.012,3.5l-2.657,16.6h7.686l1.446-9.664h10.273l1.446,9.664h8.446L109.3,260c-.383.1-.767.194-1.149.3Q105.3,261.038,102.487,261.911Z" transform="translate(-83.959 -230.824)" fill="#f2f2f2"/>
    <path id="Path_551" data-name="Path 551" d="M102.461,199.536c.095-.039.19-.075.285-.114l2.672-18.19h.152l2.39,16.27.28-.1c1.947-.643,3.913-1.214,5.884-1.753q.83-.222,1.662-.429L112.038,171.8H99.787l-5.023,31.4c.684-.378,1.373-.746,2.07-1.1C98.673,201.155,100.559,200.32,102.461,199.536Z" transform="translate(-91.265 -171.188)" fill="#f2f2f2"/>
    <path id="Path_552" data-name="Path 552" d="M194.769,179.407H198.8c2.968,0,4.261,1.674,4.261,5.479v5.251a11.35,11.35,0,0,1-.087,1.46q4.105-.19,8.21-.121a20.042,20.042,0,0,0,.248-3.241v-4.185c0-8.218-3.728-12.251-12.4-12.251H186.4v21.6q4.169-.723,8.37-1.168Z" transform="translate(-153.222 -171.188)" fill="#f2f2f2"/>
    <path id="Path_553" data-name="Path 553" d="M186.4,245.512v26.568h8.37V250.393h2.891c3.8,0,5.479,1.826,5.479,6.772v8.37c0,4.337.3,5.174.761,6.544h8.523a15.689,15.689,0,0,1-.913-6.468v-8.218c0-5.555-1.37-9.512-5.555-11.262v-.152a8.6,8.6,0,0,0,4.45-4.645c-3.273.459-6.534.943-9.777,1.482C195.85,243.6,191.1,244.486,186.4,245.512Z" transform="translate(-153.222 -218.204)" fill="#f2f2f2"/>
    <path id="Path_554" data-name="Path 554" d="M303.693,188.484V183.31c0-8.523-4.261-13.393-12.48-13.393s-12.48,4.87-12.48,13.393v7.074c2.711.154,5.417.4,8.109.774-2.006.287-4,.547-6,.806q-1.058.142-2.113.279v18.767c0,8.523,4.261,13.393,12.48,13.393s12.48-4.87,12.48-13.393v-7.077h-7.914v7.61c0,3.8-1.674,5.174-4.337,5.174s-4.338-1.37-4.338-5.174V182.777c0-3.8,1.674-5.251,4.338-5.251s4.337,1.446,4.337,5.251v5.707Z" transform="translate(-215.653 -169.917)" fill="#f2f2f2"/>
  </g>
</svg>
